<svg width="720" height="480" viewBox="0 0 720 480" fill="none" xmlns="http://www.w3.org/2000/svg">
  <rect width="720" height="480" rx="40" fill="#F7EFE6"/>
  <circle cx="568" cy="126" r="82" fill="#F8D3C5"/>
  <circle cx="148" cy="110" r="46" fill="#D4E3DA"/>
  <rect x="116" y="322" width="488" height="34" rx="17" fill="#D9C6B9"/>
  <circle cx="364" cy="220" r="116" fill="#FFF8F2" stroke="#E4D7CC" stroke-width="10"/>
  <circle cx="364" cy="220" r="90" fill="#EAF4EE" stroke="#6E8B79" stroke-width="8"/>
  <circle cx="364" cy="220" r="20" fill="#D97252"/>
  <path d="M364 138C406 162 422 212 400 252C362 250 326 228 312 190C326 162 344 146 364 138Z" fill="#6E8B79"/>
  <path d="M444 230C410 266 356 278 314 258C320 220 350 186 392 174C420 186 438 206 444 230Z" fill="#B8D0C2"/>
  <path d="M340 304C312 260 314 206 344 170C378 188 402 230 398 272C378 296 358 306 340 304Z" fill="#9CB8A9"/>
  <rect x="342" y="328" width="44" height="62" rx="20" fill="#8B4C43"/>
  <rect x="308" y="384" width="112" height="30" rx="15" fill="#C79D58"/>
</svg>
