<svg width="720" height="480" viewBox="0 0 720 480" fill="none" xmlns="http://www.w3.org/2000/svg">
  <rect width="720" height="480" rx="40" fill="#FAF2EA"/>
  <circle cx="568" cy="114" r="72" fill="#D4E3DA"/>
  <circle cx="160" cy="120" r="48" fill="#F8D3C5"/>
  <rect x="180" y="112" width="270" height="250" rx="24" fill="#FFF9F4" stroke="#E6D8CC" stroke-width="10"/>
  <rect x="214" y="146" width="164" height="18" rx="9" fill="#D4E3DA"/>
  <rect x="214" y="184" width="198" height="12" rx="6" fill="#EBDCCF"/>
  <rect x="214" y="214" width="198" height="12" rx="6" fill="#EBDCCF"/>
  <rect x="214" y="244" width="198" height="12" rx="6" fill="#EBDCCF"/>
  <rect x="214" y="274" width="134" height="12" rx="6" fill="#EBDCCF"/>
  <path d="M454 164L556 266" stroke="#8B4C43" stroke-width="18" stroke-linecap="round"/>
  <path d="M470 148L572 250" stroke="#C79D58" stroke-width="10" stroke-linecap="round"/>
  <path d="M548 258L592 302C602 312 602 328 592 338L584 346C574 356 558 356 548 346L504 302" fill="#D97252"/>
  <rect x="404" y="104" width="26" height="78" rx="12" fill="#D97252"/>
  <ellipse cx="336" cy="388" rx="170" ry="22" fill="#EEDFD4"/>
</svg>
