<svg width="720" height="480" viewBox="0 0 720 480" fill="none" xmlns="http://www.w3.org/2000/svg">
  <rect width="720" height="480" rx="40" fill="#FBF4ED"/>
  <circle cx="582" cy="118" r="74" fill="#D4E3DA"/>
  <circle cx="150" cy="104" r="50" fill="#FBE3D8"/>
  <rect x="288" y="102" width="144" height="282" rx="52" fill="#FFF9F4" stroke="#E6D8CC" stroke-width="10"/>
  <rect x="318" y="78" width="84" height="48" rx="18" fill="#8B4C43"/>
  <rect x="330" y="50" width="12" height="42" rx="6" fill="#6E8B79"/>
  <path d="M338 50H398" stroke="#6E8B79" stroke-width="10" stroke-linecap="round"/>
  <rect x="310" y="146" width="100" height="182" rx="40" fill="#D9ECE2"/>
  <path d="M326 182C346 166 376 166 396 182" stroke="#6E8B79" stroke-width="10" stroke-linecap="round"/>
  <path d="M326 226C346 210 376 210 396 226" stroke="#6E8B79" stroke-width="10" stroke-linecap="round"/>
  <path d="M326 270C346 254 376 254 396 270" stroke="#6E8B79" stroke-width="10" stroke-linecap="round"/>
  <ellipse cx="360" cy="378" rx="126" ry="22" fill="#EEDFD4"/>
</svg>
