<svg
  xmlns="http://www.w3.org/2000/svg"
  viewBox="0 0 1600 900"
  role="img"
  aria-labelledby="title desc"
>
  <title id="title">Bloom35 article banner illustration</title>
  <desc id="desc">
    A soft editorial illustration with a journal, tea cup, and botanical accents.
  </desc>
  <defs>
    <linearGradient id="bg" x1="0%" y1="0%" x2="100%" y2="100%">
      <stop offset="0%" stop-color="#f7ede5" />
      <stop offset="55%" stop-color="#f2d8c6" />
      <stop offset="100%" stop-color="#d8e5dc" />
    </linearGradient>
    <linearGradient id="panel" x1="0%" y1="0%" x2="100%" y2="100%">
      <stop offset="0%" stop-color="#fffaf5" />
      <stop offset="100%" stop-color="#f0d5c3" />
    </linearGradient>
    <linearGradient id="leaf" x1="0%" y1="0%" x2="100%" y2="100%">
      <stop offset="0%" stop-color="#7f9a88" />
      <stop offset="100%" stop-color="#b7cdbf" />
    </linearGradient>
    <filter id="shadow" x="-20%" y="-20%" width="140%" height="160%">
      <feDropShadow dx="0" dy="24" stdDeviation="22" flood-color="#8d5a47" flood-opacity="0.18" />
    </filter>
  </defs>

  <rect width="1600" height="900" fill="url(#bg)" />
  <circle cx="1320" cy="180" r="190" fill="#e5b79b" opacity="0.55" />
  <circle cx="270" cy="730" r="210" fill="#d6e6dc" opacity="0.75" />
  <path
    d="M0 118c128-36 258-34 390 4 117 34 216 38 298 11 98-32 211-91 417-89 178 2 320 53 495 120V0H0z"
    fill="#fff7f0"
    opacity="0.58"
  />
  <path
    d="M1032 786c124-72 234-96 355-82 75 9 146 34 213 78v118H954c11-42 39-79 78-114z"
    fill="#f4cdb9"
    opacity="0.75"
  />

  <g filter="url(#shadow)">
    <rect x="762" y="132" width="504" height="636" rx="34" fill="url(#panel)" />
    <rect x="800" y="188" width="428" height="22" rx="11" fill="#dfa991" opacity="0.92" />
    <rect x="800" y="242" width="344" height="14" rx="7" fill="#d6c1b5" />
    <rect x="800" y="282" width="392" height="14" rx="7" fill="#d6c1b5" />
    <rect x="800" y="322" width="368" height="14" rx="7" fill="#d6c1b5" />
    <rect x="800" y="392" width="168" height="168" rx="28" fill="#f2e2d6" />
    <rect x="991" y="392" width="237" height="18" rx="9" fill="#c79071" opacity="0.9" />
    <rect x="991" y="438" width="188" height="12" rx="6" fill="#cfbaad" />
    <rect x="991" y="472" width="210" height="12" rx="6" fill="#cfbaad" />
    <rect x="991" y="506" width="176" height="12" rx="6" fill="#cfbaad" />
    <rect x="991" y="596" width="237" height="18" rx="9" fill="#7e9988" opacity="0.88" />
    <rect x="991" y="642" width="208" height="12" rx="6" fill="#cfbaad" />
    <rect x="991" y="676" width="182" height="12" rx="6" fill="#cfbaad" />
  </g>

  <g transform="translate(320 554)">
    <ellipse cx="118" cy="186" rx="154" ry="26" fill="#d7bcaa" opacity="0.68" />
    <path
      d="M60 58c0-43 35-78 78-78h70c43 0 78 35 78 78v82c0 49-40 89-89 89h-48C100 229 60 189 60 140z"
      fill="#fef7f2"
      stroke="#c79071"
      stroke-width="12"
    />
    <path
      d="M284 66c34 0 60 27 60 60s-26 60-60 60h-14v-34h10c16 0 29-12 29-26s-13-26-29-26h-10V66z"
      fill="#fef7f2"
      stroke="#c79071"
      stroke-width="12"
      stroke-linejoin="round"
    />
    <path
      d="M124 12c0-41 34-74 74-74"
      fill="none"
      stroke="#ffffff"
      stroke-linecap="round"
      stroke-width="15"
      opacity="0.72"
    />
    <path
      d="M174 -6c0-31 25-56 56-56"
      fill="none"
      stroke="#ffffff"
      stroke-linecap="round"
      stroke-width="11"
      opacity="0.55"
    />
  </g>

  <g fill="none" stroke="url(#leaf)" stroke-linecap="round" stroke-linejoin="round">
    <path d="M222 730c20-108 75-198 165-270" stroke-width="10" />
    <path d="M304 620c-58-8-95-46-109-104" stroke-width="10" />
    <path d="M344 566c-10-54 6-101 46-140" stroke-width="10" />
    <path d="M416 694c-8-67 18-123 79-168" stroke-width="10" />
    <path d="M1328 722c-26-116-86-214-180-292" stroke-width="10" />
    <path d="M1232 602c62-10 102-51 115-112" stroke-width="10" />
    <path d="M1170 548c8-58-10-108-53-150" stroke-width="10" />
    <path d="M1100 688c8-69-19-128-84-178" stroke-width="10" />
  </g>

  <g fill="#f7efe7" opacity="0.95">
    <circle cx="890" cy="476" r="42" />
    <circle cx="924" cy="514" r="18" />
    <circle cx="856" cy="522" r="14" />
  </g>
</svg>
